<?xml version="1.0" encoding="UTF-8"?>
<svg width="40" height="40" viewBox="0 0 40 40" fill="none" xmlns="http://www.w3.org/2000/svg">
  <rect width="40" height="40" rx="8" fill="#4F46E5"/>
  <path d="M20 10C14.477 10 10 14.477 10 20C10 25.523 14.477 30 20 30C25.523 30 30 25.523 30 20C30 14.477 25.523 10 20 10ZM24.5 21H20.5V25C20.5 25.276 20.276 25.5 20 25.5C19.724 25.5 19.5 25.276 19.5 25V21H15.5C15.224 21 15 20.776 15 20.5C15 20.224 15.224 20 15.5 20H19.5V16C19.5 15.724 19.724 15.5 20 15.5C20.276 15.5 20.5 15.724 20.5 16V20H24.5C24.776 20 25 20.224 25 20.5C25 20.776 24.776 21 24.5 21Z" fill="white"/>
</svg>
